<svg width="75" height="22" viewBox="0 0 75 22" fill="none" xmlns="http://www.w3.org/2000/svg">
<path d="M8.45892 3.32816H6.59244C6.55835 3.08668 6.48875 2.87219 6.38363 2.68469C6.27852 2.49435 6.14358 2.33242 5.9788 2.1989C5.81403 2.06537 5.62369 1.9631 5.40778 1.89208C5.19471 1.82106 4.96318 1.78555 4.71318 1.78555C4.26147 1.78555 3.86801 1.89776 3.53278 2.12219C3.19755 2.34378 2.93761 2.66765 2.75295 3.09378C2.56829 3.51708 2.47596 4.03128 2.47596 4.6364C2.47596 5.25856 2.56829 5.78128 2.75295 6.20458C2.94045 6.62787 3.20182 6.94748 3.53704 7.16339C3.87227 7.37929 4.26005 7.48725 4.7004 7.48725C4.94755 7.48725 5.17625 7.45458 5.38647 7.38924C5.59954 7.3239 5.78846 7.22873 5.95324 7.10373C6.11801 6.97589 6.25437 6.82106 6.36233 6.63924C6.47312 6.45742 6.54983 6.25003 6.59244 6.01708L8.45892 6.0256C8.41062 6.42617 8.28988 6.81253 8.0967 7.18469C7.90636 7.55401 7.64926 7.88498 7.3254 8.17759C7.00437 8.46736 6.62085 8.69748 6.17483 8.86793C5.73165 9.03555 5.23022 9.11935 4.67057 9.11935C3.89216 9.11935 3.19613 8.94322 2.5825 8.59094C1.9717 8.23867 1.48875 7.72873 1.13363 7.06111C0.781361 6.3935 0.605225 5.58526 0.605225 4.6364C0.605225 3.68469 0.784202 2.87503 1.14216 2.20742C1.50011 1.53981 1.98591 1.03128 2.59954 0.681852C3.21318 0.329579 3.90352 0.153442 4.67057 0.153442C5.17625 0.153442 5.645 0.224465 6.07682 0.366511C6.51147 0.508556 6.89642 0.715942 7.23165 0.988669C7.56687 1.25856 7.8396 1.58952 8.04983 1.98157C8.2629 2.37361 8.39926 2.82248 8.45892 3.32816Z" fill="white"/>
<path d="M17.802 4.6364C17.802 5.5881 17.6216 6.39776 17.2608 7.06537C16.9028 7.73299 16.4142 8.24293 15.7949 8.5952C15.1784 8.94464 14.4852 9.11935 13.7153 9.11935C12.9397 9.11935 12.2437 8.94322 11.6272 8.59094C11.0108 8.23867 10.5235 7.72873 10.1656 7.06111C9.80764 6.3935 9.62866 5.58526 9.62866 4.6364C9.62866 3.68469 9.80764 2.87503 10.1656 2.20742C10.5235 1.53981 11.0108 1.03128 11.6272 0.681852C12.2437 0.329579 12.9397 0.153442 13.7153 0.153442C14.4852 0.153442 15.1784 0.329579 15.7949 0.681852C16.4142 1.03128 16.9028 1.53981 17.2608 2.20742C17.6216 2.87503 17.802 3.68469 17.802 4.6364ZM15.9312 4.6364C15.9312 4.01992 15.8389 3.50003 15.6542 3.07674C15.4724 2.65344 15.2153 2.33242 14.8829 2.11367C14.5505 1.89492 14.1613 1.78555 13.7153 1.78555C13.2693 1.78555 12.8801 1.89492 12.5477 2.11367C12.2153 2.33242 11.9568 2.65344 11.7721 3.07674C11.5903 3.50003 11.4994 4.01992 11.4994 4.6364C11.4994 5.25287 11.5903 5.77276 11.7721 6.19606C11.9568 6.61935 12.2153 6.94037 12.5477 7.15912C12.8801 7.37787 13.2693 7.48725 13.7153 7.48725C14.1613 7.48725 14.5505 7.37787 14.8829 7.15912C15.2153 6.94037 15.4724 6.61935 15.6542 6.19606C15.8389 5.77276 15.9312 5.25287 15.9312 4.6364Z" fill="white"/>
<path d="M26.4685 0.272761V9.00003H24.8748L21.0779 3.50714H21.014V9.00003H19.1688V0.272761H20.7881L24.5552 5.7614H24.6319V0.272761H26.4685Z" fill="white"/>
<path d="M27.6606 1.79407V0.272761H34.8282V1.79407H32.1564V9.00003H30.3325V1.79407H27.6606Z" fill="white"/>
<path d="M36.0086 9.00003V0.272761H41.8893V1.79407H37.8538V3.87361H41.5868V5.39492H37.8538V7.47873H41.9064V9.00003H36.0086Z" fill="white"/>
<path d="M50.656 0.272761V9.00003H49.0623L45.2654 3.50714H45.2015V9.00003H43.3563V0.272761H44.9756L48.7427 5.7614H48.8194V0.272761H50.656Z" fill="white"/>
<path d="M51.8481 1.79407V0.272761H59.0157V1.79407H56.3439V9.00003H54.52V1.79407H51.8481Z" fill="white"/>
<path d="M60.813 9.11083C60.5317 9.11083 60.2902 9.0114 60.0885 8.81253C59.8897 8.61083 59.7902 8.36935 59.7902 8.0881C59.7902 7.80969 59.8897 7.57106 60.0885 7.37219C60.2902 7.17333 60.5317 7.0739 60.813 7.0739C61.0857 7.0739 61.3243 7.17333 61.5289 7.37219C61.7334 7.57106 61.8357 7.80969 61.8357 8.0881C61.8357 8.2756 61.7874 8.44748 61.6908 8.60373C61.5971 8.75714 61.4735 8.88072 61.3201 8.97447C61.1667 9.06537 60.9976 9.11083 60.813 9.11083Z" fill="white"/>
<path d="M64.8645 9.00003H62.8872L65.9 0.272761H68.2778L71.2863 9.00003H69.3091L67.123 2.26708H67.0548L64.8645 9.00003ZM64.7409 5.56964H69.4113V7.00998H64.7409V5.56964Z" fill="white"/>
<path d="M74.1819 0.272761V9.00003H72.3368V0.272761H74.1819Z" fill="white"/>
<path d="M14.3296 16V13.0909H14.6648V14.1648H14.6933C14.7179 14.1269 14.752 14.0786 14.7955 14.0199C14.84 13.9603 14.9035 13.9072 14.9859 13.8608C15.0692 13.8135 15.1819 13.7898 15.3239 13.7898C15.5076 13.7898 15.6696 13.8357 15.8097 13.9276C15.9499 14.0194 16.0593 14.1497 16.1379 14.3182C16.2165 14.4868 16.2558 14.6856 16.2558 14.9148C16.2558 15.1459 16.2165 15.3462 16.1379 15.5157C16.0593 15.6842 15.9504 15.8149 15.8112 15.9077C15.6719 15.9996 15.5114 16.0455 15.3296 16.0455C15.1895 16.0455 15.0772 16.0223 14.993 15.9759C14.9087 15.9285 14.8438 15.875 14.7984 15.8154C14.7529 15.7548 14.7179 15.7046 14.6933 15.6648H14.6535V16H14.3296ZM14.6592 14.9091C14.6592 15.0739 14.6833 15.2193 14.7316 15.3452C14.7799 15.4702 14.8505 15.5682 14.9433 15.6392C15.0361 15.7093 15.1497 15.7444 15.2842 15.7444C15.4243 15.7444 15.5413 15.7074 15.635 15.6336C15.7297 15.5587 15.8007 15.4584 15.8481 15.3324C15.8964 15.2055 15.9205 15.0644 15.9205 14.9091C15.9205 14.7557 15.8969 14.6175 15.8495 14.4944C15.8031 14.3703 15.7326 14.2723 15.6379 14.2003C15.5441 14.1274 15.4262 14.0909 15.2842 14.0909C15.1478 14.0909 15.0332 14.1255 14.9404 14.1946C14.8476 14.2628 14.7775 14.3585 14.7302 14.4816C14.6828 14.6037 14.6592 14.7462 14.6592 14.9091Z" fill="white"/>
<path d="M16.9063 16.8182C16.8495 16.8182 16.7988 16.8135 16.7543 16.804C16.7098 16.7955 16.679 16.787 16.662 16.7784L16.7472 16.483C16.8287 16.5038 16.9006 16.5114 16.9631 16.5057C17.0256 16.5 17.081 16.4721 17.1293 16.4219C17.1786 16.3727 17.2236 16.2926 17.2643 16.1819L17.3268 16.0114L16.52 13.8182H16.8836L17.4859 15.5569H17.5086L18.1109 13.8182H18.4745L17.5484 16.3182C17.5067 16.4309 17.4551 16.5242 17.3935 16.598C17.332 16.6729 17.2605 16.7283 17.179 16.7642C17.0986 16.8002 17.0076 16.8182 16.9063 16.8182Z" fill="white"/>
<path d="M31.2934 13.7217H32.2538V18.9536H31.2934V13.7217ZM33.6258 15.1333H34.7375L33.3795 16.95L34.7796 18.9521H33.6399L32.3022 17.0123L33.6258 15.1333Z" fill="white"/>
<path d="M37.9134 15.1333H38.8738V18.9521H37.9134V18.3834C37.6593 18.7885 37.2555 19.0206 36.7472 19.0206C35.7104 19.0206 34.9776 18.212 34.9776 17.0466C34.9776 15.8812 35.6979 15.0647 36.755 15.0647C37.2633 15.0647 37.6671 15.2766 37.915 15.6817V15.1333H37.9134ZM36.9468 18.198C37.5579 18.198 37.9274 17.6979 37.9274 17.0466C37.9274 16.3953 37.5564 15.8874 36.939 15.8874C36.3216 15.8874 35.9723 16.3735 35.9723 17.0466C35.9723 17.7197 36.3356 18.198 36.9468 18.198Z" fill="white"/>
<path d="M40.8773 18.9521H39.9169V15.1333H40.8773V15.716C41.0769 15.3187 41.3715 15.0647 41.7488 15.0647C41.9001 15.0647 42.0092 15.1052 42.0638 15.1613V16.1897C41.9671 16.1351 41.8237 16.0666 41.6241 16.0666C41.1922 16.0666 40.8757 16.3268 40.8757 17.0263V18.9536L40.8773 18.9521Z" fill="white"/>
<path d="M45.3847 15.1333H46.3451V18.9521H45.3847V18.3834C45.1306 18.7885 44.7268 19.0206 44.2185 19.0206C43.1817 19.0206 42.4489 18.212 42.4489 17.0466C42.4489 15.8812 43.1692 15.0647 44.2263 15.0647C44.7345 15.0647 45.1384 15.2766 45.3863 15.6817V15.1333H45.3847ZM44.4165 18.198C45.0277 18.198 45.3972 17.6979 45.3972 17.0466C45.3972 16.3953 45.0261 15.8874 44.4087 15.8874C43.7913 15.8874 43.442 16.3735 43.442 17.0466C43.442 17.7197 43.8053 18.198 44.4165 18.198Z" fill="white"/>
<path d="M51.1269 17.0388C51.1269 18.1902 50.2694 19.0206 49.1375 19.0206C48.0056 19.0206 47.1481 18.1918 47.1481 17.0326C47.1481 15.8734 48.0196 15.0647 49.1578 15.0647C50.2959 15.0647 51.1269 15.8812 51.1269 17.0388ZM48.1412 17.0388C48.1412 17.7524 48.5669 18.1902 49.1359 18.1902C49.705 18.1902 50.1306 17.7508 50.1306 17.0388C50.1306 16.3268 49.705 15.8936 49.1422 15.8936C48.5793 15.8936 48.1412 16.333 48.1412 17.0388Z" fill="white"/>
<path d="M51.565 18.466C51.565 18.1575 51.8051 17.9113 52.1138 17.9113C52.4225 17.9113 52.6689 18.1575 52.6689 18.466C52.6689 18.7745 52.4288 19.0206 52.1138 19.0206C51.7989 19.0206 51.565 18.7745 51.565 18.466Z" fill="white"/>
<path d="M56.0444 13.7217H57.0048V18.9536H56.0444V18.385C55.7902 18.79 55.3864 19.0222 54.8782 19.0222C53.8413 19.0222 53.1086 18.2136 53.1086 17.0481C53.1086 15.8827 53.8289 15.0663 54.886 15.0663C55.3942 15.0663 55.798 15.2782 56.0459 15.6833V13.7217H56.0444ZM55.0777 18.198C55.6889 18.198 56.0584 17.6979 56.0584 17.0466C56.0584 16.3953 55.6873 15.8874 55.0699 15.8874C54.4525 15.8874 54.1033 16.3735 54.1033 17.0466C54.1033 17.7197 54.4666 18.198 55.0777 18.198Z" fill="white"/>
<path d="M57.9449 14.2078C57.9449 13.8791 58.2053 13.6189 58.528 13.6189C58.8508 13.6189 59.1174 13.8791 59.1174 14.2078C59.1174 14.5366 58.857 14.7967 58.528 14.7967C58.1991 14.7967 57.9449 14.5366 57.9449 14.2078ZM58.0478 15.1333H59.0083V18.9521H58.0478V15.1333Z" fill="white"/>
<path d="M60.9291 19.1858C61.046 19.5348 61.389 19.7342 61.849 19.7342C62.3635 19.7342 62.7751 19.432 62.7751 18.7199V18.2401C62.5287 18.6514 62.1234 18.8773 61.5948 18.8773C60.5455 18.8773 59.8112 18.0827 59.8112 16.9578C59.8112 15.8329 60.5315 15.0647 61.5808 15.0647C62.1156 15.0647 62.5272 15.2984 62.7751 15.716V15.1333H63.7355V18.7199C63.7355 19.7483 63.1243 20.5709 61.863 20.5709C60.8277 20.5709 60.0794 20.0365 59.9219 19.1858H60.9306H60.9291ZM61.8006 18.0469C62.418 18.0469 62.7891 17.581 62.7891 16.964C62.7891 16.347 62.418 15.8874 61.8084 15.8874C61.1988 15.8874 60.834 16.3392 60.834 16.964C60.834 17.5888 61.191 18.0469 61.8022 18.0469H61.8006Z" fill="white"/>
<path d="M64.6538 14.2078C64.6538 13.8791 64.9142 13.6189 65.2369 13.6189C65.5597 13.6189 65.8263 13.8791 65.8263 14.2078C65.8263 14.5366 65.5659 14.7967 65.2369 14.7967C64.9079 14.7967 64.6538 14.5366 64.6538 14.2078ZM64.7567 15.1333H65.7171V18.9521H64.7567V15.1333Z" fill="white"/>
<path d="M66.835 15.9154H66.3829V15.1333H66.835V14.1938H67.8032V15.1333H68.6607V15.9154H67.8032V17.7524C67.8032 18.0546 67.9061 18.1918 68.2008 18.1918C68.352 18.1918 68.5298 18.1372 68.667 18.0546V18.857C68.4814 18.9661 68.2273 19.0222 67.9607 19.0222C67.2201 19.0222 66.835 18.6311 66.835 17.8708V15.9154Z" fill="white"/>
<path d="M72.0284 15.1333H72.9888V18.9521H72.0284V18.3834C71.7743 18.7885 71.3705 19.0206 70.8622 19.0206C69.8254 19.0206 69.0926 18.212 69.0926 17.0466C69.0926 15.8812 69.8129 15.0647 70.87 15.0647C71.3783 15.0647 71.7821 15.2766 72.03 15.6817V15.1333H72.0284ZM71.0618 18.198C71.6729 18.198 72.0425 17.6979 72.0425 17.0466C72.0425 16.3953 71.6714 15.8874 71.054 15.8874C70.4366 15.8874 70.0873 16.3735 70.0873 17.0466C70.0873 17.7197 70.4506 18.198 71.0618 18.198Z" fill="white"/>
<path d="M74.0319 13.7217H75.0001V18.9536H74.0319V13.7217Z" fill="white"/>
<path d="M27.8493 12H31.1172L27.5905 16.2099H24.2197L27.8493 12Z" fill="#C5A900"/>
<path d="M27.8493 21.057H31.1172L27.5905 16.8472H24.2197L27.8493 21.057Z" fill="#C5A900"/>
<path d="M23.607 12H26.8733L23.3482 16.2099H19.9773L23.607 12Z" fill="#00A6B2"/>
<path d="M23.607 21.057H26.8733L23.3482 16.8472H19.9773L23.607 21.057Z" fill="#00A6B2"/>
</svg>
