<svg width="75" height="21" viewBox="0 0 75 21" fill="none" xmlns="http://www.w3.org/2000/svg">
<path d="M8.45892 3.17472H6.59244C6.55835 2.93324 6.48875 2.71875 6.38363 2.53125C6.27852 2.34091 6.14358 2.17898 5.9788 2.04545C5.81403 1.91193 5.62369 1.80966 5.40778 1.73864C5.19471 1.66761 4.96318 1.6321 4.71318 1.6321C4.26147 1.6321 3.86801 1.74432 3.53278 1.96875C3.19755 2.19034 2.93761 2.5142 2.75295 2.94034C2.56829 3.36364 2.47596 3.87784 2.47596 4.48295C2.47596 5.10511 2.56829 5.62784 2.75295 6.05114C2.94045 6.47443 3.20182 6.79403 3.53704 7.00994C3.87227 7.22585 4.26005 7.33381 4.7004 7.33381C4.94755 7.33381 5.17625 7.30114 5.38647 7.2358C5.59954 7.17045 5.78846 7.07528 5.95324 6.95028C6.11801 6.82244 6.25437 6.66761 6.36233 6.4858C6.47312 6.30398 6.54983 6.09659 6.59244 5.86364L8.45892 5.87216C8.41062 6.27273 8.28988 6.65909 8.0967 7.03125C7.90636 7.40057 7.64926 7.73153 7.3254 8.02415C7.00437 8.31392 6.62085 8.54403 6.17483 8.71449C5.73165 8.8821 5.23022 8.96591 4.67057 8.96591C3.89216 8.96591 3.19613 8.78977 2.5825 8.4375C1.9717 8.08523 1.48875 7.57528 1.13363 6.90767C0.781361 6.24006 0.605225 5.43182 0.605225 4.48295C0.605225 3.53125 0.784202 2.72159 1.14216 2.05398C1.50011 1.38636 1.98591 0.877841 2.59954 0.528409C3.21318 0.176136 3.90352 0 4.67057 0C5.17625 0 5.645 0.0710227 6.07682 0.213068C6.51147 0.355114 6.89642 0.5625 7.23165 0.835227C7.56687 1.10511 7.8396 1.43608 8.04983 1.82812C8.2629 2.22017 8.39926 2.66903 8.45892 3.17472Z" fill="black"/>
<path d="M17.802 4.48295C17.802 5.43466 17.6216 6.24432 17.2608 6.91193C16.9028 7.57955 16.4142 8.08949 15.7949 8.44176C15.1784 8.79119 14.4852 8.96591 13.7153 8.96591C12.9397 8.96591 12.2437 8.78977 11.6272 8.4375C11.0108 8.08523 10.5235 7.57528 10.1656 6.90767C9.80764 6.24006 9.62866 5.43182 9.62866 4.48295C9.62866 3.53125 9.80764 2.72159 10.1656 2.05398C10.5235 1.38636 11.0108 0.877841 11.6272 0.528409C12.2437 0.176136 12.9397 0 13.7153 0C14.4852 0 15.1784 0.176136 15.7949 0.528409C16.4142 0.877841 16.9028 1.38636 17.2608 2.05398C17.6216 2.72159 17.802 3.53125 17.802 4.48295ZM15.9312 4.48295C15.9312 3.86648 15.8389 3.34659 15.6542 2.9233C15.4724 2.5 15.2153 2.17898 14.8829 1.96023C14.5505 1.74148 14.1613 1.6321 13.7153 1.6321C13.2693 1.6321 12.8801 1.74148 12.5477 1.96023C12.2153 2.17898 11.9568 2.5 11.7721 2.9233C11.5903 3.34659 11.4994 3.86648 11.4994 4.48295C11.4994 5.09943 11.5903 5.61932 11.7721 6.04261C11.9568 6.46591 12.2153 6.78693 12.5477 7.00568C12.8801 7.22443 13.2693 7.33381 13.7153 7.33381C14.1613 7.33381 14.5505 7.22443 14.8829 7.00568C15.2153 6.78693 15.4724 6.46591 15.6542 6.04261C15.8389 5.61932 15.9312 5.09943 15.9312 4.48295Z" fill="black"/>
<path d="M26.4685 0.119318V8.84659H24.8748L21.0779 3.35369H21.014V8.84659H19.1688V0.119318H20.7881L24.5552 5.60795H24.6319V0.119318H26.4685Z" fill="black"/>
<path d="M27.6606 1.64062V0.119318H34.8282V1.64062H32.1564V8.84659H30.3325V1.64062H27.6606Z" fill="black"/>
<path d="M36.0086 8.84659V0.119318H41.8893V1.64062H37.8538V3.72017H41.5868V5.24148H37.8538V7.32528H41.9064V8.84659H36.0086Z" fill="black"/>
<path d="M50.656 0.119318V8.84659H49.0623L45.2654 3.35369H45.2015V8.84659H43.3563V0.119318H44.9756L48.7427 5.60795H48.8194V0.119318H50.656Z" fill="black"/>
<path d="M51.8481 1.64062V0.119318H59.0157V1.64062H56.3439V8.84659H54.52V1.64062H51.8481Z" fill="black"/>
<path d="M60.813 8.95739C60.5317 8.95739 60.2902 8.85795 60.0885 8.65909C59.8897 8.45739 59.7902 8.21591 59.7902 7.93466C59.7902 7.65625 59.8897 7.41761 60.0885 7.21875C60.2902 7.01989 60.5317 6.92045 60.813 6.92045C61.0857 6.92045 61.3243 7.01989 61.5289 7.21875C61.7334 7.41761 61.8357 7.65625 61.8357 7.93466C61.8357 8.12216 61.7874 8.29403 61.6908 8.45028C61.5971 8.60369 61.4735 8.72727 61.3201 8.82102C61.1667 8.91193 60.9976 8.95739 60.813 8.95739Z" fill="black"/>
<path d="M64.8645 8.84659H62.8872L65.9 0.119318H68.2778L71.2863 8.84659H69.3091L67.123 2.11364H67.0548L64.8645 8.84659ZM64.7409 5.41619H69.4113V6.85653H64.7409V5.41619Z" fill="black"/>
<path d="M74.1819 0.119318V8.84659H72.3368V0.119318H74.1819Z" fill="black"/>
<path d="M14.3296 15.8466V12.9375H14.6648V14.0114H14.6933C14.7179 13.9735 14.752 13.9252 14.7955 13.8665C14.84 13.8068 14.9035 13.7538 14.9859 13.7074C15.0692 13.66 15.1819 13.6364 15.3239 13.6364C15.5076 13.6364 15.6696 13.6823 15.8097 13.7741C15.9499 13.866 16.0593 13.9962 16.1379 14.1648C16.2165 14.3333 16.2558 14.5322 16.2558 14.7614C16.2558 14.9924 16.2165 15.1927 16.1379 15.3622C16.0593 15.5308 15.9504 15.6615 15.8112 15.7543C15.6719 15.8461 15.5114 15.892 15.3296 15.892C15.1895 15.892 15.0772 15.8688 14.993 15.8224C14.9087 15.7751 14.8438 15.7216 14.7984 15.6619C14.7529 15.6013 14.7179 15.5511 14.6933 15.5114H14.6535V15.8466H14.3296ZM14.6592 14.7557C14.6592 14.9205 14.6833 15.0658 14.7316 15.1918C14.7799 15.3168 14.8505 15.4148 14.9433 15.4858C15.0361 15.5559 15.1497 15.5909 15.2842 15.5909C15.4243 15.5909 15.5413 15.554 15.635 15.4801C15.7297 15.4053 15.8007 15.3049 15.8481 15.179C15.8964 15.0521 15.9205 14.911 15.9205 14.7557C15.9205 14.6023 15.8969 14.464 15.8495 14.3409C15.8031 14.2169 15.7326 14.1188 15.6379 14.0469C15.5441 13.974 15.4262 13.9375 15.2842 13.9375C15.1478 13.9375 15.0332 13.9721 14.9404 14.0412C14.8476 14.1094 14.7775 14.205 14.7302 14.3281C14.6828 14.4503 14.6592 14.5928 14.6592 14.7557Z" fill="black"/>
<path d="M16.9063 16.6648C16.8495 16.6648 16.7988 16.66 16.7543 16.6506C16.7098 16.642 16.679 16.6335 16.662 16.625L16.7472 16.3295C16.8287 16.3504 16.9006 16.358 16.9631 16.3523C17.0256 16.3466 17.081 16.3187 17.1293 16.2685C17.1786 16.2192 17.2236 16.1392 17.2643 16.0284L17.3268 15.858L16.52 13.6648H16.8836L17.4859 15.4034H17.5086L18.1109 13.6648H18.4745L17.5484 16.1648C17.5067 16.2775 17.4551 16.3707 17.3935 16.4446C17.332 16.5194 17.2605 16.5748 17.179 16.6108C17.0986 16.6468 17.0076 16.6648 16.9063 16.6648Z" fill="black"/>
<path d="M31.2934 13.5682H32.2538V18.8002H31.2934V13.5682ZM33.6258 14.9798H34.7375L33.3795 16.7965L34.7796 18.7986H33.6399L32.3022 16.8589L33.6258 14.9798Z" fill="black"/>
<path d="M37.9134 14.9798H38.8738V18.7986H37.9134V18.23C37.6593 18.635 37.2555 18.8672 36.7472 18.8672C35.7104 18.8672 34.9776 18.0586 34.9776 16.8931C34.9776 15.7277 35.6979 14.9113 36.755 14.9113C37.2633 14.9113 37.6671 15.1232 37.915 15.5283V14.9798H37.9134ZM36.9468 18.0445C37.5579 18.0445 37.9274 17.5444 37.9274 16.8931C37.9274 16.2419 37.5564 15.7339 36.939 15.7339C36.3216 15.7339 35.9723 16.2201 35.9723 16.8931C35.9723 17.5662 36.3356 18.0445 36.9468 18.0445Z" fill="black"/>
<path d="M40.8773 18.7986H39.9169V14.9798H40.8773V15.5626C41.0769 15.1653 41.3715 14.9113 41.7488 14.9113C41.9001 14.9113 42.0092 14.9518 42.0638 15.0079V16.0362C41.9671 15.9817 41.8237 15.9131 41.6241 15.9131C41.1922 15.9131 40.8757 16.1733 40.8757 16.8729V18.8002L40.8773 18.7986Z" fill="black"/>
<path d="M45.3847 14.9798H46.3451V18.7986H45.3847V18.23C45.1306 18.635 44.7268 18.8672 44.2185 18.8672C43.1817 18.8672 42.4489 18.0586 42.4489 16.8931C42.4489 15.7277 43.1692 14.9113 44.2263 14.9113C44.7345 14.9113 45.1384 15.1232 45.3863 15.5283V14.9798H45.3847ZM44.4165 18.0445C45.0277 18.0445 45.3972 17.5444 45.3972 16.8931C45.3972 16.2419 45.0261 15.7339 44.4087 15.7339C43.7913 15.7339 43.442 16.2201 43.442 16.8931C43.442 17.5662 43.8053 18.0445 44.4165 18.0445Z" fill="black"/>
<path d="M51.1269 16.8853C51.1269 18.0368 50.2694 18.8672 49.1375 18.8672C48.0056 18.8672 47.1481 18.0383 47.1481 16.8791C47.1481 15.7199 48.0196 14.9113 49.1578 14.9113C50.2959 14.9113 51.1269 15.7277 51.1269 16.8853ZM48.1412 16.8853C48.1412 17.5989 48.5669 18.0368 49.1359 18.0368C49.705 18.0368 50.1306 17.5974 50.1306 16.8853C50.1306 16.1733 49.705 15.7402 49.1422 15.7402C48.5793 15.7402 48.1412 16.1795 48.1412 16.8853Z" fill="black"/>
<path d="M51.565 18.3125C51.565 18.004 51.8051 17.7579 52.1138 17.7579C52.4225 17.7579 52.6689 18.004 52.6689 18.3125C52.6689 18.621 52.4288 18.8672 52.1138 18.8672C51.7989 18.8672 51.565 18.621 51.565 18.3125Z" fill="black"/>
<path d="M56.0444 13.5682H57.0048V18.8002H56.0444V18.2315C55.7902 18.6366 55.3864 18.8688 54.8782 18.8688C53.8413 18.8688 53.1086 18.0601 53.1086 16.8947C53.1086 15.7293 53.8289 14.9128 54.886 14.9128C55.3942 14.9128 55.798 15.1247 56.0459 15.5298V13.5682H56.0444ZM55.0777 18.0445C55.6889 18.0445 56.0584 17.5444 56.0584 16.8931C56.0584 16.2419 55.6873 15.7339 55.0699 15.7339C54.4525 15.7339 54.1033 16.2201 54.1033 16.8931C54.1033 17.5662 54.4666 18.0445 55.0777 18.0445Z" fill="black"/>
<path d="M57.9449 14.0544C57.9449 13.7256 58.2053 13.4654 58.528 13.4654C58.8508 13.4654 59.1174 13.7256 59.1174 14.0544C59.1174 14.3831 58.857 14.6433 58.528 14.6433C58.1991 14.6433 57.9449 14.3831 57.9449 14.0544ZM58.0478 14.9798H59.0083V18.7986H58.0478V14.9798Z" fill="black"/>
<path d="M60.9291 19.0324C61.046 19.3814 61.389 19.5808 61.849 19.5808C62.3635 19.5808 62.7751 19.2785 62.7751 18.5665V18.0866C62.5287 18.4979 62.1234 18.7239 61.5948 18.7239C60.5455 18.7239 59.8112 17.9292 59.8112 16.8043C59.8112 15.6794 60.5315 14.9113 61.5808 14.9113C62.1156 14.9113 62.5272 15.145 62.7751 15.5626V14.9798H63.7355V18.5665C63.7355 19.5948 63.1243 20.4175 61.863 20.4175C60.8277 20.4175 60.0794 19.8831 59.9219 19.0324H60.9306H60.9291ZM61.8006 17.8934C62.418 17.8934 62.7891 17.4276 62.7891 16.8106C62.7891 16.1936 62.418 15.7339 61.8084 15.7339C61.1988 15.7339 60.834 16.1858 60.834 16.8106C60.834 17.4353 61.191 17.8934 61.8022 17.8934H61.8006Z" fill="black"/>
<path d="M64.6538 14.0544C64.6538 13.7256 64.9142 13.4654 65.2369 13.4654C65.5597 13.4654 65.8263 13.7256 65.8263 14.0544C65.8263 14.3831 65.5659 14.6433 65.2369 14.6433C64.9079 14.6433 64.6538 14.3831 64.6538 14.0544ZM64.7567 14.9798H65.7171V18.7986H64.7567V14.9798Z" fill="black"/>
<path d="M66.835 15.762H66.3829V14.9798H66.835V14.0403H67.8032V14.9798H68.6607V15.762H67.8032V17.5989C67.8032 17.9012 67.9061 18.0383 68.2008 18.0383C68.352 18.0383 68.5298 17.9838 68.667 17.9012V18.7036C68.4814 18.8127 68.2273 18.8688 67.9607 18.8688C67.2201 18.8688 66.835 18.4777 66.835 17.7174V15.762Z" fill="black"/>
<path d="M72.0284 14.9798H72.9888V18.7986H72.0284V18.23C71.7743 18.635 71.3705 18.8672 70.8622 18.8672C69.8254 18.8672 69.0926 18.0586 69.0926 16.8931C69.0926 15.7277 69.8129 14.9113 70.87 14.9113C71.3783 14.9113 71.7821 15.1232 72.03 15.5283V14.9798H72.0284ZM71.0618 18.0445C71.6729 18.0445 72.0425 17.5444 72.0425 16.8931C72.0425 16.2419 71.6714 15.7339 71.054 15.7339C70.4366 15.7339 70.0873 16.2201 70.0873 16.8931C70.0873 17.5662 70.4506 18.0445 71.0618 18.0445Z" fill="black"/>
<path d="M74.0319 13.5682H75.0001V18.8002H74.0319V13.5682Z" fill="black"/>
<path d="M27.8493 11.8466H31.1172L27.5905 16.0565H24.2197L27.8493 11.8466Z" fill="#C5A900"/>
<path d="M27.8493 20.9036H31.1172L27.5905 16.6937H24.2197L27.8493 20.9036Z" fill="#C5A900"/>
<path d="M23.607 11.8466H26.8733L23.3482 16.0565H19.9773L23.607 11.8466Z" fill="#00A6B2"/>
<path d="M23.607 20.9036H26.8733L23.3482 16.6937H19.9773L23.607 20.9036Z" fill="#00A6B2"/>
</svg>
